<svg width="186" height="187" xmlns="http://www.w3.org/2000/svg" xmlns:xlink="http://www.w3.org/1999/xlink" xml:space="preserve" overflow="hidden"><defs><clipPath id="clip0"><path d="M669.149 437.946 761.489 346.281 853.154 438.621 760.814 530.286Z" fill-rule="nonzero" clip-rule="nonzero"/></clipPath><clipPath id="clip1"><path d="M669.149 437.946 761.489 346.281 853.154 438.621 760.814 530.286Z" fill-rule="evenodd" clip-rule="evenodd"/></clipPath><clipPath id="clip2"><path d="M669.149 437.946 761.489 346.281 853.154 438.621 760.814 530.286Z" fill-rule="evenodd" clip-rule="evenodd"/></clipPath></defs><g transform="translate(-668 -345)"><g><g clip-path="url(#clip0)"><g clip-path="url(#clip1)"><g clip-path="url(#clip2)"><path d="M796.326 484.49 778.029 484.423 778.089 468.159 796.385 468.227Z" fill="#156082" fill-rule="nonzero" fill-opacity="1"/><path d="M772.734 468.227 744.654 468.028C728.171 467.968 714.898 454.598 714.959 438.114 715.019 421.63 728.389 408.358 744.873 408.418L772.857 408.521 772.917 392.229 744.933 392.126C719.44 392.032 698.76 412.562 698.667 438.054 698.573 463.546 719.102 484.227 744.595 484.32L772.579 484.423 772.734 468.227Z" fill="#156082" fill-rule="nonzero" fill-opacity="1"/><path d="M778.437 408.528 778.497 392.264 796.794 392.331 796.734 408.595Z" fill="#156082" fill-rule="nonzero" fill-opacity="1"/></g></g></g></g></g></svg>