<svg width="135" height="116" xmlns="http://www.w3.org/2000/svg" xmlns:xlink="http://www.w3.org/1999/xlink" xml:space="preserve" overflow="hidden"><g transform="translate(-1018 -384)"><g><g><g><g><path d="M17.9688 33.4818C20.3475 33.4787 22.4989 32.0681 23.4504 29.888L28.75 29.888C30.0732 29.888 31.1458 30.9606 31.1458 32.2839L31.1458 48.0197C32.3678 47.5695 33.6423 47.2776 34.9384 47.1512 35.1713 46.0835 35.5058 45.0406 35.9375 44.0366L35.9375 32.2839C35.9328 28.3162 32.7176 25.101 28.75 25.0964L23.4504 25.0964C22.1272 22.0645 18.5968 20.6795 15.565 22.0026 12.5332 23.3258 11.1481 26.8562 12.4714 29.888 13.4252 32.0734 15.5843 33.4849 17.9688 33.4818Z" fill="#156082" fill-rule="nonzero" fill-opacity="1" transform="matrix(1.16522 0 0 1 1019 385)"/><path d="M22.6286 68.5556C22.5747 68.4442 22.5316 68.3316 22.4813 68.2214L13.1771 68.2214C11.8539 68.2214 10.7812 67.1487 10.7812 65.8255L10.7812 59.328C13.8131 58.0048 15.1981 54.4744 13.875 51.4426 12.5518 48.4108 9.02138 47.0258 5.98958 48.3489 2.95779 49.6721 1.57268 53.2025 2.89587 56.2343 3.5001 57.6187 4.60513 58.7238 5.98958 59.328L5.98958 65.8255C5.99421 69.7931 9.20945 73.0083 13.1771 73.013L25.9061 73.013C24.5459 71.7439 23.4345 70.2323 22.6286 68.5556Z" fill="#156082" fill-rule="nonzero" fill-opacity="1" transform="matrix(1.16522 0 0 1 1019 385)"/><path d="M52.7083 18.5989 52.7083 33.5201C54.3369 33.5795 55.9494 33.8641 57.5 34.3658L57.5 18.5989C60.5318 17.2756 61.9168 13.7453 60.5937 10.7135 59.2705 7.68169 55.7401 6.29659 52.7083 7.61977 49.6765 8.94295 48.2915 12.4733 49.6146 15.5051 50.2188 16.8895 51.3239 17.9946 52.7083 18.5989Z" fill="#156082" fill-rule="nonzero" fill-opacity="1" transform="matrix(1.16522 0 0 1 1019 385)"/><path d="M76.9781 43.0052C77.2848 43.2208 77.5771 43.4532 77.8646 43.688L77.8646 39.4714C77.8646 38.1481 78.9372 37.0755 80.2604 37.0755L87.4479 37.0755C91.4155 37.0708 94.6307 33.8556 94.6354 29.888L94.6354 28.1822C97.6672 26.859 99.0523 23.3286 97.7292 20.2968 96.4059 17.265 92.8755 15.8799 89.8438 17.203 86.8119 18.5263 85.4269 22.0566 86.75 25.0884 87.3542 26.4729 88.4593 27.578 89.8438 28.1822L89.8438 29.888C89.8438 31.2112 88.7711 32.2839 87.4479 32.2839L80.2604 32.2839C76.2925 32.2878 73.0769 35.5035 73.0729 39.4714L73.0729 41.0478C74.4621 41.5088 75.7775 42.1681 76.9781 43.0052Z" fill="#156082" fill-rule="nonzero" fill-opacity="1" transform="matrix(1.16522 0 0 1 1019 385)"/><path d="M40.7292 77.1554 40.7292 80.2005C40.7292 81.5237 39.6566 82.5963 38.3333 82.5963L31.1458 82.5963C27.178 82.6003 23.9623 85.816 23.9583 89.7838L23.9583 91.4897C20.9265 92.8129 19.5415 96.3433 20.8646 99.3751 22.1878 102.407 25.7182 103.792 28.75 102.469 31.7818 101.146 33.1668 97.6152 31.8437 94.5834 31.2395 93.1989 30.1344 92.0939 28.75 91.4897L28.75 89.7838C28.75 88.4606 29.8226 87.388 31.1458 87.388L38.3333 87.388C42.301 87.3833 45.5162 84.1681 45.5208 80.2005L45.5208 77.1554Z" fill="#156082" fill-rule="nonzero" fill-opacity="1" transform="matrix(1.16522 0 0 1 1019 385)"/><path d="M106.615 51.4505C104.236 51.4536 102.084 52.8642 101.133 55.0443L89.258 55.0443C90.7162 56.3652 91.8498 58.005 92.5702 59.8359L101.133 59.8359C102.456 62.8677 105.987 64.2528 109.018 62.9297 112.05 61.6065 113.435 58.0761 112.112 55.0443 111.158 52.8589 108.999 51.4474 106.615 51.4505Z" fill="#156082" fill-rule="nonzero" fill-opacity="1" transform="matrix(1.16522 0 0 1 1019 385)"/><path d="M95.8333 83.7943C93.4546 83.7974 91.3032 85.2079 90.3517 87.388L85.0521 87.388C83.7289 87.388 82.6562 86.3154 82.6562 84.9922L82.6562 76.9745C81.9719 77.0907 81.2792 77.1512 80.5851 77.1554L77.8646 77.1554 77.8646 84.9922C77.8692 88.9598 81.0845 92.175 85.0521 92.1797L90.3517 92.1797C91.6749 95.2115 95.2053 96.5965 98.2371 95.2734 101.269 93.9502 102.654 90.4198 101.331 87.388 100.377 85.2027 98.2178 83.7912 95.8333 83.7943Z" fill="#156082" fill-rule="nonzero" fill-opacity="1" transform="matrix(1.16522 0 0 1 1019 385)"/><path d="M63.4896 95.0834 63.4896 77.1554 58.6979 77.1554 58.6979 95.0834C55.6661 96.4067 54.2811 99.937 55.6042 102.969 56.9274 106.001 60.4578 107.386 63.4896 106.062 66.5214 104.739 67.9064 101.209 66.5833 98.1772 65.9791 96.7926 64.874 95.6877 63.4896 95.0834Z" fill="#156082" fill-rule="nonzero" fill-opacity="1" transform="matrix(1.16522 0 0 1 1019 385)"/><path d="M80.5851 55.2791C80.3273 55.2725 80.0695 55.2853 79.8136 55.3174L79.8136 55.2791C79.807 51.5563 77.9798 48.072 74.9213 45.9497 71.841 43.8085 67.9208 43.274 64.3796 44.5122 61.4059 38.8795 54.9944 35.9764 48.7995 37.4577 42.6161 38.8865 38.214 44.3619 38.1465 50.7078L38.1465 50.8276C33.919 50.1565 29.6641 51.8584 27.0657 55.2599 24.4942 58.6379 24.0315 63.1717 25.8678 66.9995 27.7305 70.8462 31.5603 73.3545 35.8309 73.5245L39.5312 73.5629 80.5851 73.5629C85.634 73.6206 89.7738 69.5745 89.8316 64.5257 89.8894 59.4767 85.8433 55.3368 80.7943 55.2791 80.7246 55.2782 80.6548 55.2782 80.5851 55.2791Z" fill="#156082" fill-rule="nonzero" fill-opacity="1" transform="matrix(1.16522 0 0 1 1019 385)"/></g></g></g></g></g></svg>